<?xml version="1.0" encoding="utf-8"?>
<!-- Generator: Adobe Illustrator 26.0.1, SVG Export Plug-In . SVG Version: 6.00 Build 0)  -->
<svg version="1.1" id="Layer_1" xmlns="http://www.w3.org/2000/svg" xmlns:xlink="http://www.w3.org/1999/xlink" x="0px" y="0px"
	 viewBox="0 0 530.97 551.99" style="enable-background:new 0 0 530.97 551.99;" xml:space="preserve">
<style type="text/css">
	.st0{fill-rule:evenodd;clip-rule:evenodd;fill:#FFFFFF;}
</style>
<path class="st0" d="M265.47,17.06C118.88,17.06,0,135.92,0,282.56c0,117.29,76.06,216.79,181.57,251.9
	c13.27,2.43,18.12-5.76,18.12-12.8c0-6.3-0.23-23-0.36-45.15c-73.85,16.04-89.43-35.59-89.43-35.59
	c-12.07-30.67-29.48-38.83-29.48-38.83c-24.1-16.47,1.82-16.14,1.82-16.14c26.64,1.88,40.67,27.36,40.67,27.36
	c23.68,40.57,62.14,28.86,77.26,22.06c2.41-17.16,9.27-28.86,16.86-35.49c-58.95-6.7-120.93-29.48-120.93-131.21
	c0-28.98,10.34-52.68,27.33-71.24c-2.73-6.72-11.84-33.71,2.6-70.26c0,0,22.29-7.14,73.01,27.22c21.18-5.89,43.89-8.83,66.46-8.94
	c22.54,0.1,45.26,3.05,66.46,8.94c50.69-34.35,72.93-27.22,72.93-27.22c14.48,36.55,5.37,63.54,2.64,70.26
	c17.02,18.56,27.29,42.26,27.29,71.24c0,101.99-62.07,124.43-121.22,131c9.53,8.2,18.02,24.4,18.02,49.16
	c0,35.49-0.33,64.13-0.33,72.83c0,7.1,4.78,15.36,18.26,12.77c105.4-35.18,181.4-134.62,181.4-251.87
	C530.97,135.92,412.1,17.06,265.47,17.06z"/>
</svg>
